<svg width="66" height="66" viewBox="0 0 66 66" fill="none" xmlns="http://www.w3.org/2000/svg">
<g clip-path="url(#clip0_3_698)">
<path d="M35.2922 37.2062C35.1992 37.1133 35.1254 37.003 35.0751 36.8816C35.0247 36.7602 34.9988 36.6301 34.9988 36.4987C34.9987 36.3672 35.0246 36.2371 35.0749 36.1157C35.1252 35.9942 35.1989 35.8839 35.2918 35.791C35.3848 35.698 35.4951 35.6243 35.6165 35.574C35.7379 35.5238 35.8681 35.4979 35.9995 35.4979C36.131 35.498 36.2611 35.5239 36.3825 35.5742C36.5039 35.6246 36.6142 35.6983 36.7071 35.7913L40.707 39.7912C40.8946 39.9788 41 40.2333 41 40.4986C41 40.764 40.8946 41.0185 40.707 41.2061C40.5193 41.3937 40.2648 41.4991 39.9995 41.4991C39.7341 41.4991 39.4797 41.3937 39.292 41.2061L35.2922 37.2062Z" fill="#FFFFFA"/>
<path fill-rule="evenodd" clip-rule="evenodd" d="M25 31.4984C25.0018 33.3546 25.7399 35.1342 27.0522 36.4467C28.3645 37.7592 30.1439 38.4974 31.9998 38.4992C33.8557 38.4974 35.635 37.7592 36.9474 36.4467C38.2597 35.1342 38.9977 33.3546 38.9995 31.4984C38.9995 27.6341 35.8659 24.5 31.9998 24.5C28.1337 24.5 25 27.6341 25 31.4984ZM36.9996 31.4984C36.9996 34.2606 34.7616 36.499 31.9998 36.499C29.238 36.499 26.9999 34.2606 26.9999 31.4984C26.9999 28.7363 29.2402 26.5002 31.9998 26.5002C34.7593 26.5002 36.9996 28.7363 36.9996 31.4984Z" fill="white"/>
</g>
<defs>
<clipPath id="clip0_3_698">
<rect width="16" height="17" fill="white" transform="translate(25 24.5)"/>
</clipPath>
</defs>
</svg>
