<svg width="21" height="20" viewBox="0 0 21 20" fill="none" xmlns="http://www.w3.org/2000/svg">
<mask id="mask0_3_691" style="mask-type:alpha" maskUnits="userSpaceOnUse" x="0" y="0" width="21" height="20">
<g clip-path="url(#clip0_3_691)">
<g clip-path="url(#clip1_3_691)">
<g clip-path="url(#clip2_3_691)">
<path d="M15.9077 -1.5H-0.907692C-1.78538 -1.5 -2.5 -0.701739 -2.5 0.278261V12.7609C-2.5 13.7417 -1.78538 14.5391 -0.907692 14.5391H5.43692L3.91308 16.3243C3.80538 16.493 3.74769 16.6939 3.74769 16.9009V17.5061C3.74769 17.7696 3.84154 18.0217 4.00846 18.2087C4.17538 18.3957 4.40154 18.5 4.63692 18.5H10.3638C10.6 18.5 10.8262 18.3957 10.9923 18.2087C11.1585 18.0217 11.2523 17.7696 11.2531 17.5061V16.9009C11.2531 16.6939 11.1954 16.493 11.0877 16.3243L9.56385 14.5391H15.9085C16.7862 14.5391 17.5008 13.7409 17.5008 12.7609V0.278261C17.5 -0.701739 16.7862 -1.5 15.9077 -1.5ZM15.7215 12.553H7.50077H-0.721538V0.486956H15.7223V12.5539L15.7215 12.553Z" fill="black"/>
</g>
</g>
</g>
</mask>
<g mask="url(#mask0_3_691)">
<rect width="20" height="20" transform="translate(0.5)" fill="white"/>
</g>
<defs>
<clipPath id="clip0_3_691">
<rect width="20" height="20" fill="white" transform="translate(0.5)"/>
</clipPath>
<clipPath id="clip1_3_691">
<rect width="20" height="20" fill="white" transform="translate(0.5)"/>
</clipPath>
<clipPath id="clip2_3_691">
<rect width="20" height="20" fill="white" transform="translate(-2.5 -1.5)"/>
</clipPath>
</defs>
</svg>
