<svg width="21" height="20" viewBox="0 0 21 20" fill="none" xmlns="http://www.w3.org/2000/svg">
<mask id="mask0_3_649" style="mask-type:alpha" maskUnits="userSpaceOnUse" x="0" y="0" width="21" height="20">
<g clip-path="url(#clip0_3_649)">
<g clip-path="url(#clip1_3_649)">
<g clip-path="url(#clip2_3_649)">
<path fill-rule="evenodd" clip-rule="evenodd" d="M13.49 5.99001C12.3984 5.96463 11.5284 6.90694 11.5138 7.96617C11.4992 9.06694 12.3715 9.95002 13.3492 10.0062C14.5231 10.0739 15.4215 9.08617 15.4223 8.02617C15.4231 6.90309 14.5892 6.01001 13.49 5.99001ZM9.6246 6.98155V-2.71383C9.6246 -2.99076 9.62844 -2.9946 9.90537 -2.9946L12.8331 -2.99229C15.2138 -2.95229 17.2046 -1.20768 17.64 1.13694C17.7086 1.51151 17.7434 1.89151 17.7438 2.27232L17.7484 11.8169C17.7477 14.0046 16.4569 15.9262 14.4761 16.6808C13.9254 16.8908 13.3515 16.9908 12.7654 16.9954L9.94691 16.9969C9.6246 16.9969 9.6246 16.9969 9.6246 16.6569V6.98001V6.98155ZM5.54075 15.3677V-1.38076H5.32921C4.51306 -1.38076 3.69691 -1.38691 2.88075 -1.37768C2.6078 -1.37608 2.33551 -1.35085 2.06691 -1.30229C0.536137 -1.01691 -0.660786 0.46463 -0.661556 2.06848L-0.656171 11.9546C-0.651556 12.9385 -0.25771 13.7723 0.442291 14.4439C1.1146 15.0885 1.9246 15.3723 2.83306 15.3762H5.37306C5.42614 15.3762 5.47998 15.3692 5.54075 15.3654V15.3677ZM7.12537 7.00232V16.7216C7.12537 16.9746 7.09921 17.0008 6.85383 17.0008L2.85075 16.9992C1.48537 16.9992 0.290752 16.5377 -0.701556 15.5685C-1.43848 14.8477 -1.91463 13.9631 -2.12079 12.9354C-2.18079 12.6369 -2.22848 12.3292 -2.22925 12.0254L-2.21694 1.9854C-2.17848 -0.111524 -1.13463 -1.62845 0.701521 -2.54152C1.37844 -2.87768 2.10537 -3.00152 2.85537 -2.99999H6.83998C7.1146 -2.99999 7.1246 -2.99076 7.1246 -2.69922V7.00155L7.12537 7.00232ZM0.876137 3.23924C0.846137 2.27001 1.66306 1.37155 2.73921 1.3754C3.78844 1.37925 4.63152 2.16694 4.6246 3.28155C4.61767 4.38925 3.68537 5.14848 2.71768 5.12463C1.67537 5.09925 0.869214 4.28925 0.876137 3.23924Z" fill="black"/>
</g>
</g>
</g>
</mask>
<g mask="url(#mask0_3_649)">
<rect width="20" height="20" transform="translate(2.75 2)" fill="white"/>
</g>
<defs>
<clipPath id="clip0_3_649">
<rect width="20" height="20" fill="white" transform="translate(0.75)"/>
</clipPath>
<clipPath id="clip1_3_649">
<rect width="20" height="20" fill="white" transform="translate(0.75)"/>
</clipPath>
<clipPath id="clip2_3_649">
<rect width="20" height="20" fill="white" transform="translate(-2.25 -3)"/>
</clipPath>
</defs>
</svg>
