<svg width="21" height="20" viewBox="0 0 21 20" fill="none" xmlns="http://www.w3.org/2000/svg">
<mask id="mask0_3_677" style="mask-type:alpha" maskUnits="userSpaceOnUse" x="0" y="0" width="21" height="20">
<g clip-path="url(#clip0_3_677)">
<g clip-path="url(#clip1_3_677)">
<g clip-path="url(#clip2_3_677)">
<path fill-rule="evenodd" clip-rule="evenodd" d="M-1.20322 15.1626C-0.717884 15.3922 0.159449 15.327 0.756783 15.0174L2.37545 14.1687V16.6252L2.05345 16.7017C0.434115 17.0835 -1.29255 16.9243 -2.99122 16.1157C-4.57588 15.4722 -4.84055 14.1313 -4.11788 13.3574C-3.44922 12.6426 -2.31455 12.1061 -2.31455 12.1061L2.37545 9.69913V12.4417L-0.999884 14.1878C-1.59722 14.4965 -1.68722 14.9348 -1.20322 15.1626ZM15.3201 14.6722C14.9241 15.227 13.9568 15.6226 13.9568 15.6226L6.75012 18.5V16.3791L12.0528 14.2774C12.6548 14.0383 12.7474 13.6991 12.2588 13.5217C11.7701 13.3443 10.8861 13.3948 10.2841 13.6339L6.75012 15.0183V12.8174L6.95278 12.7409C6.95278 12.7409 7.97545 12.3383 9.40945 12.16C10.8454 11.987 12.6041 12.1843 13.9841 12.767C15.5401 13.313 15.7148 14.1191 15.3201 14.6722ZM7.52145 9.64522V3.39478C7.52145 2.66261 7.41811 1.9887 6.89011 1.79652C6.48545 1.62435 6.23612 2.11652 6.23612 2.8487V18.5L3.00012 17.16V-1.5C4.37678 -1.16696 6.38012 -0.38 7.45812 0.0921738C10.1968 1.32087 11.1254 2.8487 11.1254 6.28957C11.1254 9.64435 9.53878 10.9165 7.52212 9.64522H7.52145Z" fill="black"/>
</g>
</g>
</g>
</mask>
<g mask="url(#mask0_3_677)">
<rect width="20" height="20" transform="translate(0.5)" fill="white"/>
</g>
<defs>
<clipPath id="clip0_3_677">
<rect width="20" height="20" fill="white" transform="translate(0.5)"/>
</clipPath>
<clipPath id="clip1_3_677">
<rect width="20" height="20" fill="white" transform="translate(0.5)"/>
</clipPath>
<clipPath id="clip2_3_677">
<rect width="20" height="20" fill="white" transform="translate(-4.5 -1.5)"/>
</clipPath>
</defs>
</svg>
