<svg width="21" height="20" viewBox="0 0 21 20" fill="none" xmlns="http://www.w3.org/2000/svg">
<mask id="mask0_3_663" style="mask-type:alpha" maskUnits="userSpaceOnUse" x="0" y="0" width="21" height="20">
<g clip-path="url(#clip0_3_663)">
<g clip-path="url(#clip1_3_663)">
<g clip-path="url(#clip2_3_663)">
<path d="M-0.909458 12.5273C0.847875 14.0673 3.15254 15 5.67188 15C8.09455 15.0035 10.4356 14.1245 12.2572 12.5273C13.8212 10.934 8.66054 5.27 5.67188 3.01333C2.68721 5.27 -2.47746 10.934 -0.909458 12.5273ZM8.39054 0.522C10.4739 2.98933 14.6272 9.116 13.4539 11.282C14.8405 9.56667 15.6719 7.384 15.6719 5.00333C15.6719 2.22 14.5345 -0.298667 12.6972 -2.11C12.6972 -2.11 12.6745 -2.128 12.6285 -2.14533C12.5533 -2.17124 12.4741 -2.18388 12.3945 -2.18267C11.9012 -2.18267 10.7405 -1.82133 8.39054 0.522ZM-1.28279 -2.14467C-1.33013 -2.128 -1.35146 -2.11067 -1.35413 -2.10933C-3.19079 -0.298 -4.32812 2.22 -4.32812 5.00333C-4.32812 7.382 -3.49613 9.564 -2.11079 11.2807C-3.27813 9.11 0.871875 2.988 2.95587 0.522C0.605875 -1.822 -0.557458 -2.182 -1.04946 -2.182C-1.15879 -2.182 -1.23546 -2.16467 -1.28346 -2.14333V-2.14533L-1.28279 -2.14467ZM5.67188 -2.04067C5.67188 -2.04067 3.21788 -3.47667 1.30121 -3.54467C0.548542 -3.572 0.0898752 -3.29867 0.0338755 -3.262C1.82121 -4.46133 3.72121 -5 5.65854 -5H5.67188C7.61721 -5 9.50921 -4.46133 11.3105 -3.26267C11.2539 -3.30133 10.7979 -3.57267 10.0439 -3.54533C8.12721 -3.47667 5.67188 -2.046 5.67188 -2.046V-2.04067Z" fill="black"/>
</g>
</g>
</g>
</mask>
<g mask="url(#mask0_3_663)">
<rect width="20" height="20" transform="translate(0.671875)" fill="white"/>
</g>
<defs>
<clipPath id="clip0_3_663">
<rect width="20" height="20" fill="white" transform="translate(0.671875)"/>
</clipPath>
<clipPath id="clip1_3_663">
<rect width="20" height="20" fill="white" transform="translate(0.671875)"/>
</clipPath>
<clipPath id="clip2_3_663">
<rect width="20" height="20" fill="white" transform="translate(-4.32812 -5)"/>
</clipPath>
</defs>
</svg>
