<svg width="130" height="32" viewBox="0 0 130 32" fill="none" xmlns="http://www.w3.org/2000/svg">
<g clip-path="url(#clip0_3_378)">
<path d="M34.4279 11.3557H47.4999V13.7809H42.36V27.4142H39.5336V13.7809H34.4165V11.3557H34.4279ZM46.9414 15.7868H49.3575V18.0307H49.4031C49.4829 17.7134 49.6311 17.4074 49.8476 17.1127C50.0641 16.8181 50.3263 16.5348 50.634 16.2968C50.9417 16.0475 51.2836 15.8548 51.6597 15.6962C52.0358 15.5488 52.4232 15.4695 52.8107 15.4695C53.107 15.4695 53.3236 15.4808 53.4375 15.4922C53.5515 15.5035 53.6655 15.5262 53.7908 15.5375V18.008C53.6085 17.974 53.4262 17.9514 53.2324 17.9287C53.0387 17.906 52.8563 17.8947 52.674 17.8947C52.2409 17.8947 51.8306 17.9854 51.4431 18.1554C51.0556 18.3254 50.7251 18.586 50.4402 18.9147C50.1553 19.2546 49.9274 19.6626 49.7564 20.1613C49.5855 20.6599 49.5057 21.2265 49.5057 21.8725V27.4029H46.93V15.7868L46.9414 15.7868ZM65.632 27.4142H63.1019V25.7936H63.0563C62.7372 26.3829 62.27 26.8476 61.6432 27.1989C61.0163 27.5502 60.3781 27.7315 59.7285 27.7315C58.19 27.7315 57.0731 27.3575 56.3893 26.5983C55.7055 25.839 55.3636 24.6944 55.3636 23.1644V15.7868H57.9392V22.9151C57.9392 23.9351 58.133 24.6604 58.5319 25.0797C58.9193 25.499 59.4778 25.7143 60.1844 25.7143C60.7314 25.7143 61.1759 25.635 61.5406 25.465C61.9053 25.295 62.2016 25.0797 62.4181 24.7964C62.6461 24.5244 62.8056 24.1844 62.9082 23.7991C63.0108 23.4138 63.0563 22.9944 63.0563 22.5411V15.7982H65.632V27.4142ZM70.0197 23.6857C70.0995 24.4337 70.3844 24.955 70.8745 25.261C71.3759 25.5556 71.9685 25.7143 72.6637 25.7143C72.9031 25.7143 73.1766 25.6916 73.4843 25.6576C73.792 25.6236 74.0883 25.5443 74.3504 25.4423C74.624 25.3403 74.8405 25.1817 75.0228 24.9777C75.1938 24.7737 75.2736 24.513 75.2622 24.1844C75.2508 23.8557 75.1254 23.5837 74.8975 23.3798C74.6696 23.1644 74.3846 23.0058 74.0313 22.8698C73.678 22.7451 73.2792 22.6318 72.8233 22.5411C72.3674 22.4505 71.9116 22.3485 71.4443 22.2465C70.9656 22.1445 70.4984 22.0085 70.0539 21.8612C69.6094 21.7138 69.2105 21.5099 68.8572 21.2492C68.5039 20.9999 68.219 20.6712 68.0139 20.2746C67.7974 19.8779 67.6948 19.3906 67.6948 18.8013C67.6948 18.1667 67.8543 17.6454 68.1621 17.2147C68.4698 16.7841 68.8686 16.4441 69.3359 16.1835C69.8146 15.9228 70.3388 15.7415 70.92 15.6282C71.5013 15.5262 72.0597 15.4695 72.584 15.4695C73.188 15.4695 73.7692 15.5375 74.3163 15.6622C74.8633 15.7868 75.3647 15.9908 75.8092 16.2855C76.2537 16.5688 76.6184 16.9428 76.9147 17.3961C77.211 17.8494 77.3934 18.4047 77.4731 19.0506H74.7835C74.6581 18.4387 74.3846 18.0194 73.9402 17.8154C73.4957 17.6001 72.9828 17.4981 72.413 17.4981C72.2307 17.4981 72.0141 17.5094 71.7634 17.5434C71.5127 17.5774 71.2847 17.6341 71.0568 17.7134C70.8403 17.7927 70.6579 17.9174 70.4984 18.076C70.3502 18.2347 70.2704 18.4387 70.2704 18.6993C70.2704 19.0167 70.3844 19.266 70.6009 19.4586C70.8175 19.6513 71.1024 19.8099 71.4557 19.9459C71.809 20.0706 72.2079 20.1839 72.6637 20.2746C73.1196 20.3652 73.5869 20.4672 74.0655 20.5692C74.5328 20.6712 74.9887 20.8072 75.4445 20.9545C75.9004 21.1019 76.2993 21.3059 76.6526 21.5665C77.0059 21.8272 77.2908 22.1445 77.5073 22.5298C77.7239 22.9151 77.8378 23.4024 77.8378 23.9691C77.8378 24.6604 77.6783 25.2383 77.3592 25.7256C77.0401 26.2016 76.6298 26.5983 76.1283 26.8929C75.6269 27.1876 75.057 27.4142 74.4416 27.5502C73.8262 27.6862 73.2108 27.7542 72.6068 27.7542C71.866 27.7542 71.1822 27.6749 70.5554 27.5049C69.9285 27.3349 69.3815 27.0856 68.9256 26.7569C68.4698 26.4169 68.1051 25.9976 67.8429 25.499C67.5808 25.0003 67.4441 24.3997 67.4213 23.7084H70.0197V23.6857ZM78.5216 15.7868H80.4705V12.2963H83.0461V15.7868H85.371V17.7021H83.0461V23.9124C83.0461 24.1844 83.0575 24.411 83.0803 24.615C83.1031 24.8077 83.1601 24.9777 83.2398 25.1137C83.3196 25.2497 83.445 25.3517 83.6159 25.4196C83.7869 25.4876 84.0034 25.5216 84.2997 25.5216C84.4821 25.5216 84.6644 25.5216 84.8468 25.5103C85.0291 25.499 85.2115 25.4763 85.3938 25.431V27.4142C85.1089 27.4482 84.824 27.4709 84.5619 27.5049C84.2883 27.5389 84.0148 27.5502 83.7299 27.5502C83.0461 27.5502 82.4991 27.4822 82.0888 27.3575C81.6785 27.2329 81.348 27.0402 81.1201 26.7909C80.8807 26.5416 80.7326 26.2356 80.6414 25.8616C80.5616 25.4876 80.5046 25.057 80.4932 24.581V17.7247H78.5444V15.7868H78.5216ZM87.1945 15.7868H89.6334V17.3621H89.679C90.0437 16.6821 90.5451 16.2061 91.1947 15.9115C91.8443 15.6168 92.5395 15.4695 93.3031 15.4695C94.2262 15.4695 95.024 15.6282 95.7078 15.9568C96.3916 16.2741 96.9614 16.7161 97.4173 17.2827C97.8732 17.8494 98.2037 18.5067 98.4316 19.2546C98.6595 20.0026 98.7735 20.8072 98.7735 21.6572C98.7735 22.4391 98.6709 23.1984 98.4658 23.9237C98.2607 24.6604 97.9529 25.3063 97.5427 25.873C97.1324 26.4396 96.6081 26.8816 95.9699 27.2216C95.3317 27.5615 94.5909 27.7315 93.7248 27.7315C93.3487 27.7315 92.9726 27.6975 92.5965 27.6295C92.2204 27.5615 91.8557 27.4482 91.5138 27.3009C91.1719 27.1536 90.8414 26.9609 90.5565 26.7229C90.2602 26.4849 90.0209 26.2129 89.8157 25.907H89.7701V31.7093H87.1945V15.7868ZM96.1979 21.6118C96.1979 21.0905 96.1295 20.5806 95.9927 20.0819C95.856 19.5833 95.6508 19.1526 95.3773 18.7673C95.1038 18.382 94.7619 18.076 94.363 17.8494C93.9527 17.6227 93.4855 17.4981 92.9612 17.4981C91.8785 17.4981 91.058 17.872 90.5109 18.62C89.9639 19.368 89.6904 20.3652 89.6904 21.6118C89.6904 22.2012 89.7587 22.7451 89.9069 23.2438C90.0551 23.7424 90.2602 24.173 90.5565 24.5357C90.8414 24.8983 91.1833 25.1817 91.5822 25.3857C91.9811 25.601 92.4484 25.703 92.9726 25.703C93.5652 25.703 94.0553 25.5783 94.4656 25.3403C94.8759 25.1023 95.2064 24.785 95.4685 24.411C95.7306 24.0257 95.9243 23.5951 96.0383 23.1078C96.1409 22.6205 96.1979 22.1218 96.1979 21.6118ZM100.745 11.3557H103.321V13.7809H100.745V11.3557ZM100.745 15.7868H103.321V27.4142H100.745V15.7868ZM105.623 11.3557H108.199V27.4142H105.623V11.3557ZM116.096 27.7315C115.162 27.7315 114.33 27.5729 113.601 27.2669C112.871 26.9609 112.256 26.5303 111.743 25.9976C111.241 25.4536 110.854 24.8077 110.592 24.0597C110.33 23.3118 110.193 22.4845 110.193 21.5892C110.193 20.7052 110.33 19.8893 110.592 19.1413C110.854 18.3933 111.241 17.7474 111.743 17.2034C112.244 16.6594 112.871 16.2401 113.601 15.9341C114.33 15.6282 115.162 15.4695 116.096 15.4695C117.031 15.4695 117.863 15.6282 118.592 15.9341C119.322 16.2401 119.937 16.6708 120.45 17.2034C120.951 17.7474 121.339 18.3933 121.601 19.1413C121.863 19.8893 122 20.7052 122 21.5892C122 22.4845 121.863 23.3118 121.601 24.0597C121.339 24.8077 120.951 25.4536 120.45 25.9976C119.949 26.5416 119.322 26.9609 118.592 27.2669C117.863 27.5729 117.031 27.7315 116.096 27.7315ZM116.096 25.703C116.666 25.703 117.168 25.5783 117.589 25.3403C118.011 25.1023 118.353 24.785 118.627 24.3997C118.9 24.0144 119.094 23.5724 119.231 23.0851C119.356 22.5978 119.424 22.0992 119.424 21.5892C119.424 21.0905 119.356 20.6032 119.231 20.1046C119.105 19.606 118.9 19.1753 118.627 18.79C118.353 18.4047 118.011 18.0987 117.589 17.8607C117.168 17.6227 116.666 17.4981 116.096 17.4981C115.527 17.4981 115.025 17.6227 114.604 17.8607C114.182 18.0987 113.84 18.416 113.566 18.79C113.293 19.1753 113.099 19.606 112.962 20.1046C112.837 20.6032 112.769 21.0905 112.769 21.5892C112.769 22.0992 112.837 22.5978 112.962 23.0851C113.088 23.5724 113.293 24.0144 113.566 24.3997C113.84 24.785 114.182 25.1023 114.604 25.3403C115.025 25.5896 115.527 25.703 116.096 25.703ZM122.752 15.7868H124.701V12.2963H127.277V15.7868H129.602V17.7021H127.277V23.9124C127.277 24.1844 127.288 24.411 127.311 24.615C127.334 24.8077 127.391 24.9777 127.47 25.1137C127.55 25.2497 127.675 25.3517 127.846 25.4196C128.017 25.4876 128.234 25.5216 128.53 25.5216C128.713 25.5216 128.895 25.5216 129.077 25.5103C129.26 25.499 129.442 25.4763 129.624 25.431V27.4142C129.339 27.4482 129.054 27.4709 128.792 27.5049C128.519 27.5389 128.245 27.5502 127.96 27.5502C127.277 27.5502 126.73 27.4822 126.319 27.3575C125.909 27.2329 125.578 27.0402 125.351 26.7909C125.111 26.5416 124.963 26.2356 124.872 25.8616C124.792 25.4876 124.735 25.057 124.724 24.581V17.7247H122.775V15.7868L122.752 15.7868Z" fill="white"/>
<path d="M31.4192 11.3557H19.6122L15.9653 0.181641L12.307 11.3557L0.5 11.3444L10.0618 18.2574L6.40348 29.4201L15.9653 22.5185L25.5157 29.4201L21.8688 18.2574L31.4192 11.3557Z" fill="#00B67A"/>
<path d="M22.6893 20.7845L21.8688 18.2573L15.9653 22.5184L22.6893 20.7845Z" fill="#005128"/>
</g>
<defs>
<clipPath id="clip0_3_378">
<rect width="129.25" height="31.8" fill="white" transform="translate(0.5)"/>
</clipPath>
</defs>
</svg>
