<svg width="144" height="39" viewBox="0 0 144 39" fill="none" xmlns="http://www.w3.org/2000/svg">
<g clip-path="url(#clip0_3_427)">
<path d="M45.0339 5.92995L44.3623 3.81867C44.1975 3.29721 44.0581 2.71534 43.9314 2.21932H43.9061C43.7825 2.71534 43.6526 3.30993 43.5037 3.81867L42.8447 5.92995H45.0339ZM42.5913 7.10959L41.8563 9.53883H40.2468L42.9841 0.9729H44.9706L47.7427 9.53883H46.0731L45.3001 7.10959" fill="white"/>
<path d="M50.0713 3.35132L51.0725 6.48644C51.2499 7.03333 51.3734 7.52935 51.4875 8.0381H51.5255C51.6396 7.52935 51.779 7.04605 51.9437 6.48644L52.9322 3.35132H54.5638L52.2098 9.53888H50.6796L48.3859 3.35132" fill="white"/>
<path d="M59.2622 6.51188C58.1597 6.49916 57.1078 6.7281 57.1078 7.66927C57.1078 8.27976 57.5007 8.55957 57.9949 8.55957C58.6254 8.55957 59.0721 8.15257 59.221 7.70743C59.2622 7.59296 59.2622 7.47849 59.2622 7.36402V6.51188ZM60.7797 8.05083C60.7797 8.61044 60.8051 9.15734 60.8811 9.53571H59.4745L59.3636 8.85209H59.3224C58.9581 9.33222 58.3117 9.67562 57.5007 9.67562C56.2588 9.67562 55.5649 8.77578 55.5649 7.83461C55.5649 6.28295 56.9431 5.48486 59.221 5.49758V5.39583C59.221 4.98884 59.0594 4.31476 57.9696 4.31476C57.3613 4.31476 56.7277 4.50554 56.3095 4.77262L56.0053 3.75514C56.4615 3.47534 57.2599 3.21143 58.2357 3.21143C60.2095 3.21143 60.7797 4.46738 60.7797 5.82826" fill="white"/>
<path d="M62.9815 3.35139H64.5371V9.53895H62.9815V3.35139ZM63.7514 2.4611C63.235 2.4611 62.8928 2.07954 62.8928 1.62167C62.8928 1.13837 63.2445 0.769531 63.7672 0.769531C64.2963 0.769531 64.6258 1.13837 64.6385 1.62167C64.6385 2.07954 64.2963 2.4611 63.7672 2.4611" fill="white"/>
<path d="M66.7771 9.53895H68.3358V0.502441H66.7771V9.53895Z" fill="white"/>
<path d="M73.8547 6.51188C72.7522 6.49916 71.7004 6.7281 71.7004 7.66927C71.7004 8.27976 72.0933 8.55957 72.5875 8.55957C73.2211 8.55957 73.6647 8.15257 73.8167 7.70743C73.8548 7.59296 73.8548 7.47849 73.8548 7.36402L73.8547 6.51188ZM75.3723 8.05083C75.3723 8.61044 75.3976 9.15734 75.4737 9.53571H74.0702L73.9561 8.85209H73.9181C73.5506 9.33222 72.9043 9.67562 72.0932 9.67562C70.8545 9.67562 70.1575 8.77578 70.1575 7.83461C70.1575 6.28295 71.5388 5.48486 73.8167 5.49758V5.39583C73.8167 4.98884 73.652 4.31476 72.5621 4.31476C71.9538 4.31476 71.3202 4.50554 70.9052 4.77262L70.601 3.75514C71.0572 3.47534 71.8524 3.21143 72.8282 3.21143C74.802 3.21143 75.3723 4.46738 75.3723 5.82826" fill="white"/>
<path d="M79.133 6.98253C79.133 7.10972 79.1456 7.2369 79.171 7.35137C79.3357 7.98729 79.8807 8.44516 80.5491 8.44516C81.525 8.44516 82.1206 7.66933 82.1206 6.41338C82.1206 5.31958 81.601 4.42929 80.5618 4.42929C79.9282 4.42929 79.3484 4.88715 79.1837 5.57395C79.1584 5.68842 79.133 5.82832 79.133 5.98095L79.133 6.98253ZM77.5742 0.502441H79.133V4.20035H79.1583C79.5384 3.60258 80.2069 3.21149 81.132 3.21149C82.6401 3.21149 83.7141 4.46744 83.7014 6.34978C83.7014 8.57235 82.2979 9.67886 80.9039 9.67886C80.1055 9.67886 79.399 9.37361 78.9555 8.6105H78.9302L78.8542 9.53896H77.5236C77.5489 9.11924 77.5743 8.43244 77.5743 7.80924" fill="white"/>
<path d="M85.5358 9.53895H87.0913V0.502441H85.5358V9.53895Z" fill="white"/>
<path d="M93.1552 5.79011C93.1679 5.21777 92.9144 4.2766 91.8784 4.2766C90.9153 4.2766 90.5098 5.15418 90.4464 5.79011H93.1552ZM90.4464 6.88072C90.4845 7.99995 91.3589 8.48325 92.3473 8.48325C93.0665 8.48325 93.5734 8.36879 94.055 8.20345L94.2831 9.26862C93.7508 9.50074 93.0158 9.6629 92.1319 9.6629C90.1296 9.6629 88.951 8.43238 88.951 6.5405C88.951 4.8235 89.9902 3.21143 91.9671 3.21143C93.9663 3.21143 94.6252 4.86165 94.6252 6.22254C94.6252 6.51506 94.5999 6.744 94.5746 6.88072" fill="white"/>
<path d="M102.359 8.54685C103.243 8.54685 103.864 7.68199 103.864 6.42603C103.864 5.45943 103.433 4.3402 102.371 4.3402C101.269 4.3402 100.825 5.42127 100.825 6.45147C100.825 7.64383 101.421 8.54685 102.343 8.54685H102.359ZM102.308 9.6788C100.572 9.6788 99.2191 8.48326 99.2191 6.48963C99.2191 4.45466 100.547 3.21143 102.409 3.21143C104.244 3.21143 105.473 4.50554 105.473 6.38788C105.473 8.66131 103.876 9.6788 102.321 9.6788" fill="white"/>
<path d="M107.304 5.19234C107.304 4.4801 107.282 3.88233 107.257 3.34815H108.61L108.686 4.2766H108.724C109.002 3.7933 109.674 3.21143 110.7 3.21143C111.774 3.21143 112.89 3.90777 112.89 5.86642V9.53571H111.331V6.04448C111.331 5.15418 111.001 4.4801 110.156 4.4801C109.535 4.4801 109.104 4.92525 108.939 5.39583C108.888 5.52302 108.863 5.7138 108.863 5.89186V9.53571H107.304" fill="white"/>
<path d="M120.066 1.76147V3.34811H121.545V4.51822H120.066V7.2368C120.066 7.99991 120.268 8.38147 120.861 8.38147C121.14 8.38147 121.292 8.36875 121.469 8.31787L121.494 9.49751C121.266 9.58972 120.848 9.66286 120.367 9.66286C119.787 9.66286 119.318 9.47208 119.026 9.1573C118.684 8.80118 118.532 8.22884 118.532 7.41486V4.51821H117.658V3.34811H118.532V2.1939" fill="white"/>
<path d="M123.278 0.502441H124.837V4.18763H124.862C125.052 3.89511 125.318 3.65346 125.635 3.48812C125.952 3.31324 126.316 3.21149 126.709 3.21149C127.761 3.21149 128.861 3.90783 128.861 5.89192V9.53895H127.305V6.05726C127.305 5.16696 126.975 4.48016 126.114 4.48016C125.509 4.48016 125.078 4.88715 124.9 5.35774C124.85 5.49764 124.837 5.66298 124.837 5.82832V9.53895H123.278" fill="white"/>
<path d="M134.886 5.79011C134.899 5.21777 134.646 4.2766 133.606 4.2766C132.643 4.2766 132.241 5.15418 132.178 5.79011H134.886ZM132.178 6.88072C132.216 7.99995 133.087 8.48325 134.075 8.48325C134.798 8.48325 135.304 8.36879 135.783 8.20345L136.014 9.26862C135.482 9.50074 134.747 9.6629 133.86 9.6629C131.861 9.6629 130.682 8.43238 130.682 6.5405C130.682 4.8235 131.721 3.21143 133.695 3.21143C135.694 3.21143 136.353 4.86165 136.353 6.22254C136.353 6.51506 136.328 6.744 136.302 6.88072" fill="white"/>
<path d="M23.221 17.8442C23.1799 13.6057 26.6775 11.5421 26.8391 11.4467C24.859 8.54693 21.789 8.15265 20.7087 8.12085C18.133 7.85059 15.6333 9.67251 14.3217 9.67251C12.9815 9.67251 10.9571 8.14947 8.78053 8.19399C5.97353 8.2385 3.35028 9.86965 1.91193 12.3975C-1.05347 17.558 1.15791 25.1382 4.00293 29.3099C5.4286 31.3512 7.08872 33.6342 9.26525 33.5515C11.3943 33.4625 12.1895 32.1907 14.7589 32.1907C17.3061 32.1907 18.0538 33.5515 20.2746 33.5007C22.5589 33.4625 23.9972 31.4498 25.3691 29.3862C27.0165 27.046 27.6755 24.7408 27.7008 24.6231C27.647 24.6041 23.2654 22.9252 23.221 17.8442Z" fill="white"/>
<path d="M19.0264 5.37994C20.1701 3.94274 20.959 1.98409 20.7372 0C19.0802 0.0763112 17.0083 1.15103 15.8139 2.55642C14.7589 3.79648 13.8116 5.82826 14.0587 7.73604C15.9216 7.87595 17.832 6.79487 19.0264 5.37994Z" fill="white"/>
<path d="M48.9149 25.9363L47.4448 21.3799C47.2896 20.9157 46.9981 19.8187 46.5673 18.0953H46.5166C46.3455 18.8362 46.0667 19.9331 45.6897 21.3799L44.245 25.9363H48.9149ZM53.9966 33.2145H51.028L49.4028 28.0889H43.7571L42.2079 33.2145H39.3185L44.9198 15.7646H48.3731" fill="white"/>
<path d="M65.5542 26.871C65.5542 25.6437 65.2786 24.6357 64.7273 23.8408C64.1253 23.0141 63.3175 22.5976 62.3036 22.5976C61.6161 22.5976 60.9889 22.8297 60.4344 23.2844C59.8768 23.7454 59.5093 24.3432 59.3351 25.0872C59.2495 25.4306 59.2083 25.7136 59.2083 25.9362V28.0347C59.2083 28.9505 59.4871 29.7231 60.0447 30.3527C60.6055 30.9854 61.331 31.297 62.2244 31.297C63.2763 31.297 64.0937 30.8932 64.6734 30.0792C65.2627 29.2684 65.5542 28.2001 65.5542 26.871ZM68.3929 26.7661C68.3929 28.906 67.8163 30.6007 66.663 31.8408C65.6302 32.9473 64.3471 33.4973 62.8201 33.4973C61.1663 33.4973 59.9814 32.8996 59.259 31.7104H59.2083V38.3399H56.4204V24.7724C56.4204 23.4275 56.3887 22.0475 56.319 20.6294H58.768L58.9232 22.6262H58.9771C59.9053 21.1222 61.3152 20.3718 63.2066 20.3718C64.6829 20.3718 65.9217 20.9601 66.907 22.1333C67.8955 23.3098 68.3929 24.8519 68.3929 26.7661Z" fill="white"/>
<path d="M79.9724 26.871C79.9724 25.6437 79.6968 24.6357 79.1455 23.8408C78.5436 23.0141 77.7357 22.5976 76.7219 22.5976C76.0344 22.5976 75.4102 22.8297 74.8526 23.2844C74.2919 23.7454 73.9307 24.3432 73.7596 25.0872C73.6709 25.4306 73.6297 25.7136 73.6297 25.9362V28.0347C73.6297 28.9505 73.9054 29.7231 74.463 30.3527C75.0237 30.9854 75.7492 31.297 76.6458 31.297C77.6945 31.297 78.5119 30.8932 79.0948 30.0792C79.6778 29.2684 79.9724 28.2001 79.9724 26.871ZM82.8079 26.7661C82.8079 28.906 82.2345 30.6007 81.0813 31.8408C80.0484 32.9473 78.7685 33.4973 77.2383 33.4973C75.5877 33.4973 74.4028 32.8996 73.6773 31.7104H73.6297V38.3399H70.8417V24.7724C70.8417 23.4275 70.8069 22.0475 70.7404 20.6294H73.1894L73.3446 22.6262H73.3984C74.3236 21.1222 75.7334 20.3718 77.6248 20.3718C79.1043 20.3718 80.3367 20.9601 81.3284 22.1333C82.3168 23.3098 82.8079 24.8519 82.8079 26.7661Z" fill="white"/>
<path d="M98.934 28.321C98.934 29.8027 98.4207 31.011 97.3879 31.9458C96.2537 32.9633 94.6791 33.472 92.6547 33.472C90.7823 33.472 89.2806 33.1095 88.1432 32.3846L88.7895 30.0571C90.0156 30.7979 91.3557 31.1668 92.8194 31.1668C93.8681 31.1668 94.6855 30.9315 95.2716 30.4577C95.8545 29.9808 96.146 29.3448 96.146 28.5499C96.146 27.8441 95.9084 27.2431 95.4268 26.7598C94.9452 26.2765 94.1437 25.8282 93.0253 25.4116C89.9807 24.2702 88.46 22.6008 88.46 20.4069C88.46 18.9729 88.9923 17.7964 90.0599 16.8807C91.1244 15.965 92.5438 15.5039 94.3148 15.5039C95.8989 15.5039 97.2137 15.7837 98.2623 16.3338L97.5653 18.6136C96.5864 18.0794 95.4775 17.8091 94.2387 17.8091C93.2566 17.8091 92.4931 18.0508 91.945 18.5341C91.4824 18.9665 91.248 19.4943 91.248 20.1144C91.248 20.8044 91.5109 21.3735 92.0464 21.8218C92.5089 22.2352 93.3517 22.6835 94.5746 23.17C96.0699 23.7741 97.1693 24.48 97.8758 25.2908C98.5791 26.1016 98.934 27.1127 98.934 28.321Z" fill="white"/>
<path d="M108.141 22.7281H105.071V28.8361C105.071 30.391 105.612 31.1668 106.699 31.1668C107.193 31.1668 107.608 31.1255 107.935 31.0396L108.011 33.1604C107.466 33.3703 106.74 33.472 105.847 33.472C104.748 33.472 103.886 33.135 103.265 32.4641C102.647 31.79 102.337 30.6581 102.337 29.0714V22.7281H100.505V20.6295H102.337V18.3274L105.071 17.4976V20.6295H108.141" fill="white"/>
<path d="M119.106 26.9091C119.106 25.7486 118.855 24.7565 118.355 23.9235C117.775 22.9187 116.939 22.4163 115.855 22.4163C114.737 22.4163 113.885 22.9187 113.302 23.9235C112.801 24.7565 112.557 25.7677 112.557 26.9632C112.557 28.1238 112.801 29.1158 113.302 29.9457C113.904 30.9505 114.746 31.4528 115.833 31.4528C116.894 31.4528 117.731 30.9441 118.333 29.9203C118.849 29.0745 119.106 28.0697 119.106 26.9091ZM121.995 26.8201C121.995 28.7533 121.447 30.34 120.344 31.5832C119.191 32.8614 117.661 33.4973 115.754 33.4973C113.91 33.4973 112.446 32.8837 111.353 31.6595C110.263 30.4354 109.718 28.8901 109.718 27.0268C109.718 25.0745 110.279 23.4783 111.407 22.2383C112.532 20.9919 114.049 20.3718 115.957 20.3718C117.797 20.3718 119.28 20.9855 120.395 22.2097C121.463 23.4052 121.995 24.9378 121.995 26.8201Z" fill="white"/>
<path d="M131.05 23.0904C130.774 23.0395 130.483 23.0141 130.172 23.0141C129.193 23.0141 128.433 23.3861 127.901 24.127C127.438 24.7852 127.207 25.6119 127.207 26.6103V33.2144H124.422L124.444 24.5944C124.444 23.1413 124.409 21.8217 124.343 20.6294H126.769L126.871 23.0395H126.944C127.238 22.2128 127.704 21.5451 128.338 21.0459C128.959 20.5976 129.63 20.3718 130.353 20.3718C130.609 20.3718 130.844 20.3909 131.05 20.4227" fill="white"/>
<path d="M140.849 25.6024C140.868 24.7757 140.687 24.0571 140.31 23.4529C139.829 22.6771 139.084 22.286 138.089 22.286C137.18 22.286 136.439 22.6676 135.872 23.4275C135.409 24.0316 135.13 24.7566 135.051 25.6024H140.849ZM143.504 26.3273C143.504 26.8297 143.472 27.2494 143.406 27.596H135.051C135.08 28.8392 135.485 29.7899 136.261 30.4449C136.965 31.0332 137.877 31.3225 138.995 31.3225C140.231 31.3225 141.359 31.1254 142.376 30.7279L142.813 32.6707C141.625 33.1858 140.225 33.4497 138.606 33.4497C136.664 33.4497 135.137 32.8742 134.028 31.7232C132.922 30.5785 132.365 29.0364 132.365 27.1032C132.365 25.2049 132.878 23.6246 133.914 22.3655C134.994 21.0173 136.458 20.3464 138.295 20.3464C140.101 20.3464 141.473 21.0173 142.401 22.3655C143.139 23.4339 143.504 24.7566 143.504 26.3273Z" fill="white"/>
</g>
<defs>
<clipPath id="clip0_3_427">
<rect width="143" height="38.34" fill="white" transform="translate(0.503784)"/>
</clipPath>
</defs>
</svg>
